<svg xmlns="http://www.w3.org/2000/svg" viewBox="0 0 643.43 305.63"><defs><style>.cls-1{fill:none;}.cls-2{fill:#1b679b;}.cls-3{fill:#168fd3;}.cls-4{fill:#29b0e5;}</style></defs><g id="Capa_2" data-name="Capa 2"><g id="Capa_1-2" data-name="Capa 1"><path class="cls-1" d="M279.11,154l10.6,10.66c10.15,10.51,20,20.53,30.51,29.83a82.58,82.58,0,0,0,9.24,7.11,62.67,62.67,0,0,0,13.43,6.87c22.95,8.21,48.18,0,63.21-19.13a57.14,57.14,0,0,0,12-34c0-.48,0-1,0-1.47,0-.66,0-1.31,0-2A56.84,56.84,0,0,0,410,124.45a58.57,58.57,0,0,0-60.45-27.31A49.09,49.09,0,0,0,329.25,106a123.6,123.6,0,0,0-14.93,13Q296.65,136.49,279.11,154Z"/><path class="cls-1" d="M191.82,108.41c-.7-.56-1.41-1.11-2.13-1.63C169,91.7,140.4,93.17,121,109.48a57.9,57.9,0,0,0-21,44.24V154c0,.46,0,.92,0,1.37s0,.92,0,1.37A58.32,58.32,0,0,0,113,190.62c15.35,19.11,49,29.35,74.26,12.53a51.9,51.9,0,0,0,7-5.6c14.37-13.64,28.72-27.31,42.8-41.24l2.15-2.13-9.87-9.87S203.43,117.76,191.82,108.41Z"/><path class="cls-2" d="M446.56,147.21c0-.35-.06-.69-.1-1a68.5,68.5,0,0,0-68.08-60.94q-2.89,0-5.73.24A68.23,68.23,0,0,0,329.25,106a49.09,49.09,0,0,1,20.29-8.87A58.57,58.57,0,0,1,410,124.45a56.84,56.84,0,0,1,8.12,27.48c0,.65,0,1.3,0,2,0,.5,0,1,0,1.47a57.14,57.14,0,0,1-12,34c-15,19.14-40.26,27.34-63.21,19.13a62.67,62.67,0,0,1-13.43-6.87A68.19,68.19,0,0,0,373.32,222c1.67.13,3.36.19,5.06.19a68.49,68.49,0,0,0,68.47-66.72c0-.46,0-.92,0-1.38Q446.86,150.66,446.56,147.21Z"/><path class="cls-3" d="M378.38,222.21c-1.7,0-3.39-.06-5.06-.19a68.19,68.19,0,0,1-43.86-20.38,82.58,82.58,0,0,1-9.24-7.11c-10.47-9.3-20.36-19.32-30.51-29.83L279.11,154q-4.39,4.38-8.76,8.77-5.64,5.63-11.26,11.27l10.75,10.75s9.88,11,23.27,23c1.14,1,2.32,2.06,3.51,3.1l.25.22C309.36,222,324.19,233,336.82,236.88a86.88,86.88,0,0,0,100.66-43.82,83.38,83.38,0,0,0,9.37-37.57A68.49,68.49,0,0,1,378.38,222.21Z"/><path class="cls-4" d="M279.11,154q17.55-17.53,35.21-35a123.6,123.6,0,0,1,14.93-13,68.23,68.23,0,0,1,43.4-20.54q2.84-.24,5.73-.24a68.5,68.5,0,0,1,68.08,60.94,87.22,87.22,0,0,0-33-60.1c-31.94-25.15-78.35-24.83-108.27,2.52q-5.44,5-10.77,10.1c-1.28,1.22-2.55,2.44-3.82,3.68-10.66,10.34-21.05,21-31.45,31.6q-5.51,5.63-11,11.23c-3,3-5.94,6-8.94,9L237,156.31c-14.08,13.93-28.43,27.6-42.8,41.24a51.9,51.9,0,0,1-7,5.6A68.21,68.21,0,0,1,144.9,222c-1.68.13-3.37.19-5.08.19a68.49,68.49,0,0,1-68.49-68.12c0,41.52,30.94,79.11,73.09,85,29.18,4.08,54.16-4.6,75-25.31l7.5-7.49q16.14-16.08,32.22-32.23,5.63-5.64,11.26-11.27Q274.71,158.43,279.11,154Z"/><path class="cls-3" d="M139.82,85.23c1.72,0,3.42.06,5.1.19a68.21,68.21,0,0,1,44.77,21.36c.72.52,1.43,1.07,2.13,1.63,11.61,9.35,37.5,35.9,37.5,35.9l9.87,9.87c3-3,6-6,8.94-9q5.53-5.59,11-11.23l-9.26-9.31c-6.63-6.56-14.76-15.75-24.28-24.81-13.68-13-30.22-25.74-49.26-30C129.13,59.25,81.87,90.18,72.76,138.7a81.28,81.28,0,0,0-1.3,10.88A68.5,68.5,0,0,1,139.82,85.23Z"/><path class="cls-2" d="M139.82,222.21c1.71,0,3.4-.06,5.08-.19a68.21,68.21,0,0,0,42.32-18.87C162,220,128.31,209.73,113,190.62A58.32,58.32,0,0,1,100,156.75c0-.45,0-.91,0-1.37s0-.91,0-1.37v-.29a57.9,57.9,0,0,1,21-44.24c19.44-16.31,48-17.78,68.73-2.7a68.21,68.21,0,0,0-44.77-21.36c-1.68-.13-3.38-.19-5.1-.19a68.5,68.5,0,0,0-68.36,64.35c0,.23,0,.46,0,.68,0,.64,0,1.28-.07,1.92s0,1.28,0,1.91A68.49,68.49,0,0,0,139.82,222.21Z"/><path class="cls-4" d="M28.07,0V186.19c0,18.39,9,24.63,18.09,24.63H61.22V237H43c-25.88,0-43-14.65-43-48.66V0Z"/><path class="cls-4" d="M468.47,74.54h28.07v25.57h.63c13.4-19.33,37.73-29.31,61.74-29.31,45.84,0,84.52,36.48,84.52,83.26,0,51.15-40.55,86.7-85.76,86.7-28.08,0-48.66-11.85-60.5-28.69h-.63v93.56H468.47ZM553.92,97c-30.56,0-57.38,26.19-57.38,58.94a58.49,58.49,0,0,0,58.32,58.62c29.63,0,58.63-22.76,58.63-60.19C613.49,127.25,592,97,553.92,97Z"/></g></g></svg>