<svg xmlns="http://www.w3.org/2000/svg" viewBox="0 0 375.54 172.53"><defs><style>.cls-1{fill:none;}.cls-2{fill:#1b679b;}.cls-3{fill:#168fd3;}.cls-4{fill:#29b0e5;}</style></defs><g id="Capa_2" data-name="Capa 2"><g id="Capa_1-2" data-name="Capa 1"><path class="cls-1" d="M207.78,86.41l10.6,10.66c10.15,10.51,20,20.53,30.51,29.83a82.58,82.58,0,0,0,9.24,7.11,62.67,62.67,0,0,0,13.43,6.87c22.95,8.21,48.18,0,63.21-19.13a57.14,57.14,0,0,0,12-34c0-.48,0-1,0-1.47,0-.65,0-1.31,0-2a56.91,56.91,0,0,0-8.12-27.48,58.57,58.57,0,0,0-60.45-27.31,49.09,49.09,0,0,0-20.29,8.87,123.6,123.6,0,0,0-14.93,13Q225.32,68.86,207.78,86.41Z"/><path class="cls-1" d="M120.49,40.78c-.7-.56-1.41-1.11-2.13-1.63-20.72-15.08-49.29-13.61-68.73,2.7a57.9,57.9,0,0,0-21,44.24v.29c0,.46,0,.92,0,1.37s0,.92.05,1.37A58.32,58.32,0,0,0,41.63,123c15.35,19.11,49,29.35,74.26,12.53a51.9,51.9,0,0,0,7-5.6c14.37-13.64,28.72-27.31,42.8-41.24l2.15-2.13L158,76.68S132.1,50.13,120.49,40.78Z"/><path class="cls-2" d="M375.23,79.58c0-.35-.06-.69-.1-1A68.5,68.5,0,0,0,307.05,17.6q-2.9,0-5.73.24a68.23,68.23,0,0,0-43.4,20.54,49.09,49.09,0,0,1,20.29-8.87,58.57,58.57,0,0,1,60.45,27.31,56.91,56.91,0,0,1,8.12,27.48c0,.65,0,1.31,0,2,0,.5,0,1,0,1.47a57.14,57.14,0,0,1-12,34c-15,19.14-40.26,27.34-63.21,19.13A62.67,62.67,0,0,1,258.13,134,68.19,68.19,0,0,0,302,154.39c1.67.13,3.36.19,5.06.19a68.49,68.49,0,0,0,68.47-66.72c0-.46,0-.92,0-1.38Q375.53,83,375.23,79.58Z"/><path class="cls-3" d="M307.05,154.58c-1.7,0-3.39-.06-5.06-.19A68.19,68.19,0,0,1,258.13,134a82.58,82.58,0,0,1-9.24-7.11c-10.47-9.3-20.36-19.32-30.51-29.83l-10.6-10.66q-4.4,4.38-8.76,8.77-5.64,5.63-11.26,11.27l10.75,10.75s9.88,11,23.27,23c1.14,1,2.32,2.06,3.51,3.1l.25.22c12.49,10.84,27.32,21.78,40,25.69a86.88,86.88,0,0,0,100.66-43.82,83.38,83.38,0,0,0,9.37-37.57A68.49,68.49,0,0,1,307.05,154.58Z"/><path class="cls-4" d="M207.78,86.41q17.55-17.53,35.21-35a123.6,123.6,0,0,1,14.93-13,68.23,68.23,0,0,1,43.4-20.54q2.83-.24,5.73-.24a68.5,68.5,0,0,1,68.08,60.94,87.22,87.22,0,0,0-33-60.1C310.21-6.71,263.8-6.39,233.88,21q-5.44,5-10.77,10.1c-1.28,1.22-2.55,2.44-3.82,3.68-10.66,10.34-21,21-31.45,31.6q-5.51,5.63-11,11.23c-3,3-5.94,6-8.94,9l-2.15,2.13c-14.08,13.93-28.43,27.6-42.8,41.24a51.9,51.9,0,0,1-7,5.6,68.21,68.21,0,0,1-42.32,18.87c-1.68.13-3.37.19-5.08.19A68.49,68.49,0,0,1,0,86.46c0,41.52,30.94,79.11,73.09,85,29.18,4.08,54.16-4.6,74.95-25.31l7.5-7.49q16.14-16.08,32.22-32.23,5.63-5.64,11.26-11.27Q203.39,90.8,207.78,86.41Z"/><path class="cls-3" d="M68.49,17.6c1.72,0,3.42.06,5.1.19a68.21,68.21,0,0,1,44.77,21.36c.72.52,1.43,1.07,2.13,1.63,11.61,9.35,37.5,35.9,37.5,35.9l9.87,9.87c3-3,6-6,8.94-9q5.53-5.59,11-11.23L178.58,57C172,50.47,163.82,41.28,154.3,32.22c-13.68-13-30.22-25.74-49.26-30C57.8-8.38,10.54,22.55,1.43,71.07A81.28,81.28,0,0,0,.13,82,68.5,68.5,0,0,1,68.49,17.6Z"/><path class="cls-2" d="M68.49,154.58c1.71,0,3.4-.06,5.08-.19a68.21,68.21,0,0,0,42.32-18.87C90.65,152.34,57,142.1,41.63,123A58.32,58.32,0,0,1,28.69,89.12c0-.45-.05-.91-.05-1.37s0-.91,0-1.37v-.29a57.9,57.9,0,0,1,21-44.24c19.44-16.31,48-17.78,68.73-2.7A68.21,68.21,0,0,0,73.59,17.79c-1.68-.13-3.38-.19-5.1-.19A68.5,68.5,0,0,0,.13,82c0,.23,0,.46,0,.68,0,.64,0,1.28-.07,1.92s0,1.28,0,1.91A68.49,68.49,0,0,0,68.49,154.58Z"/></g></g></svg>